<svg width="121" height="158" viewBox="0 0 121 158" fill="none" xmlns="http://www.w3.org/2000/svg">
<path d="M15.6135 157.949C11.4984 157.949 7.97558 156.483 5.04511 153.553C2.11465 150.622 0.649414 147.1 0.649414 142.984V68.1641C0.649414 64.0489 2.11465 60.5261 5.04511 57.5957C7.97558 54.6652 11.4984 53.2 15.6135 53.2H23.0955V38.2359C23.0955 27.8857 26.743 19.0632 34.038 11.7682C41.333 4.47318 50.1556 0.825684 60.5058 0.825684C70.8559 0.825684 79.6785 4.47318 86.9735 11.7682C94.2685 19.0632 97.916 27.8857 97.916 38.2359V53.2H105.398C109.513 53.2 113.036 54.6652 115.966 57.5957C118.897 60.5261 120.362 64.0489 120.362 68.1641V142.984C120.362 147.1 118.897 150.622 115.966 153.553C113.036 156.483 109.513 157.949 105.398 157.949H15.6135ZM15.6135 142.984H105.398V68.1641H15.6135V142.984ZM60.5058 120.538C64.6209 120.538 68.1437 119.073 71.0741 116.143C74.0046 113.212 75.4698 109.689 75.4698 105.574C75.4698 101.459 74.0046 97.9364 71.0741 95.0059C68.1437 92.0754 64.6209 90.6102 60.5058 90.6102C56.3906 90.6102 52.8678 92.0754 49.9374 95.0059C47.0069 97.9364 45.5417 101.459 45.5417 105.574C45.5417 109.689 47.0069 113.212 49.9374 116.143C52.8678 119.073 56.3906 120.538 60.5058 120.538ZM38.0596 53.2H82.9519V38.2359C82.9519 32.0009 80.7696 26.7011 76.4051 22.3366C72.0406 17.972 66.7408 15.7898 60.5058 15.7898C54.2707 15.7898 48.9709 17.972 44.6064 22.3366C40.2419 26.7011 38.0596 32.0009 38.0596 38.2359V53.2Z" fill="white"/>
</svg>
