<svg width="834" height="242" viewBox="0 0 834 242" fill="none" xmlns="http://www.w3.org/2000/svg">
<path d="M106.651 159.28C106.651 169.842 103.173 177.635 96.2178 182.658C89.3911 187.553 82.5644 190 75.7377 190H43.2787C36.452 190 29.8185 187.553 23.3782 182.658C20.2869 180.082 17.904 176.862 16.2295 172.998C14.555 169.005 13.7178 164.432 13.7178 159.28V104.215C13.7178 93.7822 16.9379 86.0538 23.3782 81.0304C26.5984 78.7119 29.8829 76.9086 33.2319 75.6206C36.7096 74.2037 40.0586 73.4953 43.2787 73.4953H75.7377C78.8291 73.4953 82.2424 74.1393 85.9778 75.4273C89.7132 76.5866 93.1909 78.1967 96.411 80.2576C99.5024 82.4473 101.95 85.4742 103.753 89.3384C105.685 93.2025 106.651 97.7751 106.651 103.056V112.717C106.651 118.899 103.109 121.991 96.0246 121.991C88.9403 121.991 85.3982 118.899 85.3982 112.717V104.409C85.3982 101.188 84.3677 98.2904 82.3068 95.7142C80.3747 93.0093 77.0258 91.6569 72.26 91.6569H48.1089C43.3431 91.6569 39.9298 93.0093 37.8689 95.7142C35.9368 98.2904 34.9707 101.188 34.9707 104.409V159.087C34.9707 162.178 35.9368 165.076 37.8689 167.781C39.9298 170.486 43.3431 171.838 48.1089 171.838H72.26C77.0258 171.838 80.3747 170.486 82.3068 167.781C84.3677 165.076 85.3982 162.178 85.3982 159.087V150.199C85.3982 144.145 88.9403 141.118 96.0246 141.118C103.109 141.118 106.651 144.145 106.651 150.199V159.28ZM151.755 181.885C151.755 188.068 148.213 191.159 141.128 191.159C133.786 191.159 130.115 188.068 130.115 181.885V101.897C130.115 91.3348 133.271 83.9929 139.583 79.8711C145.894 75.7494 153.172 73.6885 161.415 73.6885H183.441C188.207 73.6885 190.59 76.7154 190.59 82.7693C190.847 88.8231 188.464 91.8501 183.441 91.8501H162.961C158.324 91.8501 155.297 92.7517 153.88 94.555C152.463 96.3583 151.755 98.87 151.755 102.09V181.885ZM213.109 217.049C208.601 217.049 206.218 214.022 205.96 207.968C205.96 201.915 208.343 198.888 213.109 198.888H221.61C226.118 198.888 229.081 197.535 230.498 194.83L233.203 187.681L234.169 184.59L196.493 85.8606V86.0538C195.463 82.9625 195.656 80.322 197.073 78.1323C198.618 75.9426 200.937 74.3325 204.028 73.3021C206.347 72.658 208.214 72.336 209.631 72.336C213.367 72.336 215.685 74.5257 216.587 78.9051L231.85 116.967L244.795 148.653L265.468 79.2915C266.628 74.6545 269.333 72.336 273.583 72.336C274.614 72.336 276.288 72.658 278.607 73.3021C281.698 74.2037 283.888 75.685 285.176 77.7458C286.593 79.8067 286.915 82.2541 286.142 85.0878C280.346 104.795 274.42 124.631 268.367 144.596C262.442 164.561 256.581 184.333 250.785 203.911C250.141 205.328 249.11 206.745 247.693 208.162C246.405 209.707 244.666 211.124 242.477 212.412C240.287 213.829 237.582 214.924 234.362 215.697C231.142 216.598 227.406 217.049 223.156 217.049H213.109ZM341.615 190C336.978 190 334.531 186.973 334.273 180.919C334.273 174.865 336.721 171.838 341.615 171.838H361.129C365.895 171.838 369.244 170.486 371.176 167.781C373.237 165.076 374.268 162.178 374.268 159.087V104.602C374.268 101.382 373.237 98.4192 371.176 95.7142C369.244 92.8805 365.831 91.5925 360.936 91.8501H323.84V207.968C323.84 214.022 320.298 217.049 313.214 217.049C306.129 217.049 302.587 213.958 302.587 207.775V85.0878C302.587 80.5796 303.746 77.5526 306.065 76.007C308.383 74.4613 311.217 73.6885 314.566 73.6885H364.607C367.956 73.6885 371.305 74.2681 374.654 75.4273C378.132 76.5866 381.674 78.1967 385.28 80.2576C388.372 82.4473 390.819 85.5386 392.622 89.5316C394.554 93.3957 395.52 97.9683 395.52 103.249V160.439C395.52 171.001 392.107 178.536 385.28 183.044C378.067 187.681 371.176 190 364.607 190H341.615ZM445.068 91.8501V162.178C445.068 165.527 445.776 168.103 447.193 169.906C448.61 171.71 451.637 172.611 456.274 172.611H461.297C466.321 172.611 468.704 175.574 468.446 181.499C468.446 187.553 466.063 190.58 461.297 190.58H454.922C450.8 190.58 446.936 190.064 443.329 189.034C439.722 187.875 436.245 186.265 432.896 184.204V184.397C426.584 180.275 423.429 172.933 423.429 162.371V91.8501H415.893C411.256 91.8501 408.809 88.8231 408.551 82.7693C408.551 76.7154 410.999 73.6885 415.893 73.6885H423.429V53.0152C423.429 46.8325 427.099 43.7412 434.441 43.7412C441.526 43.7412 445.068 46.8325 445.068 53.0152V73.6885H461.104C466.128 73.6885 468.511 76.7154 468.253 82.7693C468.253 88.8231 465.87 91.8501 461.104 91.8501H445.068Z" fill="black"/>
<path d="M673.805 181.885C673.805 188.068 670.263 191.159 663.179 191.159C655.837 191.159 652.166 188.068 652.166 181.885V101.897C652.166 91.3348 655.321 83.9929 661.633 79.8711C667.944 75.7494 675.222 73.6885 683.465 73.6885H705.491C710.257 73.6885 712.64 76.7154 712.64 82.7693C712.898 88.8231 710.515 91.8501 705.491 91.8501H685.011C680.374 91.8501 677.347 92.7517 675.93 94.555C674.513 96.3583 673.805 98.87 673.805 102.09V181.885ZM750.23 159.087C750.23 162.178 751.196 165.076 753.128 167.781C755.189 170.486 758.602 171.838 763.368 171.838H787.519C792.285 171.838 795.634 170.679 797.566 168.361C799.627 165.913 800.657 163.144 800.657 160.053V157.927C800.657 151.874 804.199 148.847 811.283 148.847C818.368 148.847 821.91 151.874 821.91 157.927V160.246C821.91 165.656 821.008 170.1 819.205 173.577C817.531 177.055 814.954 180.082 811.477 182.658C804.65 187.553 797.823 190 790.997 190H758.538C751.711 190 745.077 187.553 738.637 182.658C735.546 180.082 733.163 176.862 731.488 172.998C729.814 169.005 728.977 164.432 728.977 159.28V104.215C728.977 93.7822 732.197 86.0538 738.637 81.0304C741.857 78.7119 745.142 76.9086 748.491 75.6206C751.968 74.2037 755.317 73.4953 758.538 73.4953H790.997C794.088 73.4953 797.501 74.1393 801.237 75.4273C804.972 76.5866 808.45 78.1967 811.67 80.2576C814.761 82.4473 817.209 85.4742 819.012 89.3384C820.944 93.2025 821.91 97.7751 821.91 103.056V129.139C821.91 132.102 821.008 134.742 819.205 137.061C817.531 139.379 814.375 140.539 809.738 140.539H768.005C763.368 140.539 760.92 137.512 760.663 131.458C760.663 125.404 763.11 122.377 768.005 122.377H800.85L800.657 104.409C800.657 101.188 799.627 98.2904 797.566 95.7142C795.634 93.0093 792.285 91.6569 787.519 91.6569H763.368C758.602 91.6569 755.189 93.0093 753.128 95.7142C751.196 98.2904 750.23 101.188 750.23 104.409V159.087Z" fill="black"/>
<path d="M515.613 186.949C511.498 186.949 507.976 185.483 505.045 182.553C502.115 179.622 500.649 176.1 500.649 171.984V97.1641C500.649 93.0489 502.115 89.5261 505.045 86.5957C507.976 83.6652 511.498 82.2 515.613 82.2H523.096V67.2359C523.096 56.8857 526.743 48.0632 534.038 40.7682C541.333 33.4732 550.156 29.8257 560.506 29.8257C570.856 29.8257 579.678 33.4732 586.973 40.7682C594.268 48.0632 597.916 56.8857 597.916 67.2359V82.2H605.398C609.513 82.2 613.036 83.6652 615.966 86.5957C618.897 89.5261 620.362 93.0489 620.362 97.1641V171.984C620.362 176.1 618.897 179.622 615.966 182.553C613.036 185.483 609.513 186.949 605.398 186.949H515.613ZM515.613 171.984H605.398V97.1641H515.613V171.984ZM560.506 149.538C564.621 149.538 568.144 148.073 571.074 145.143C574.005 142.212 575.47 138.689 575.47 134.574C575.47 130.459 574.005 126.936 571.074 124.006C568.144 121.075 564.621 119.61 560.506 119.61C556.391 119.61 552.868 121.075 549.937 124.006C547.007 126.936 545.542 130.459 545.542 134.574C545.542 138.689 547.007 142.212 549.937 145.143C552.868 148.073 556.391 149.538 560.506 149.538ZM538.06 82.2H582.952V67.2359C582.952 61.0009 580.77 55.7011 576.405 51.3366C572.041 46.972 566.741 44.7898 560.506 44.7898C554.271 44.7898 548.971 46.972 544.606 51.3366C540.242 55.7011 538.06 61.0009 538.06 67.2359V82.2Z" fill="black"/>
</svg>
